<svg xmlns="http://www.w3.org/2000/svg" viewBox="0 0 514 230"><path d="M233.7 126.8v-10.7h41.1v10.7h-14.6v32.8h-12v-32.8zm60.1 1c1.7-.8 3.6-1.3 5.9-1.3 2 0 3.7.3 5.1.9 1.4.6 2.5 1.4 3.3 2.6.8 1.1 1.4 2.5 1.8 4.1.4 1.6.5 3.4.5 5.3v20.2h-12v-17.8c0-.7 0-1.3-.1-2s-.3-1.3-.5-1.8c-.3-.5-.6-1-1.2-1.3-.5-.3-1.2-.5-2.1-.5-1.5 0-2.7.5-3.5 1.5-.9 1-1.3 2.7-1.3 5v16.9h-12v-43.5h12v15.4c1-1.6 2.4-2.8 4.1-3.7m35.4 6.8c-.7.2-1.3.5-1.9.9-.6.4-1.1 1-1.6 1.6-.5.7-.8 1.5-1 2.4h12.5c-.1-1-.3-1.8-.7-2.4-.4-.7-.9-1.2-1.5-1.6-.6-.4-1.2-.7-1.9-.9-.7-.2-1.3-.3-2-.3-.6 0-1.3.1-1.9.3m-6 24.5c-2.2-.9-4.1-2.1-5.6-3.6s-2.7-3.4-3.5-5.5c-.8-2.1-1.2-4.5-1.2-7 0-2.6.5-4.9 1.4-7 .9-2.1 2.1-3.9 3.7-5.3 1.6-1.5 3.4-2.6 5.5-3.4 2.1-.8 4.4-1.2 6.8-1.2 2.8 0 5.4.5 7.6 1.6 2.2 1 4.1 2.5 5.7 4.3 1.5 1.8 2.7 4 3.4 6.4.7 2.4 1 5.1.8 7.9h-23.3c.2 1.6.9 3 2 3.9 1.1 1 2.6 1.5 4.5 1.5 1.2 0 2.3-.3 3.3-.8 1.1-.5 1.8-1.2 2.1-2.1h11.3c-.4 1.2-1 2.5-1.8 3.8-.9 1.4-2 2.6-3.4 3.8-1.4 1.2-3.1 2.1-5 2.9-1.9.8-4.2 1.2-6.7 1.2-2.8-.1-5.3-.5-7.6-1.4m-63 23v27.5h-12v-43.5h15.4l14 27.7v-27.7h12v43.5h-15.5zm46.5 14.3c-1.6.6-2.5 1.6-2.5 3 0 .7.3 1.3.9 2 .6.6 1.6 1 3 1 .8 0 1.5-.1 2.2-.3.7-.2 1.3-.5 1.9-1 .5-.5 1-1.1 1.3-1.9.3-.8.4-1.8.4-3.1v-1c-3.2.3-5.6.7-7.2 1.3m6.4-10.3c-.3-.6-.6-1-1.1-1.3s-1-.5-1.5-.6c-.6-.1-1.2-.2-1.8-.2-1.5 0-2.8.3-3.7 1-1 .7-1.5 1.7-1.7 3.1H293c.1-1.5.6-3 1.3-4.4.8-1.4 1.8-2.7 3.2-3.8 1.4-1.1 3.1-2 5.1-2.7 2-.7 4.3-1 7-1 2.3 0 4.5.2 6.4.7 1.9.5 3.6 1.3 5 2.4 1.4 1.1 2.5 2.6 3.2 4.4.8 1.8 1.1 4.1 1.1 6.8l-.1 6.2v3.2c0 1.1 0 2.3.1 3.4.1 1.2.1 2.3.2 3.4s.2 2.1.3 3h-11.2v-4.2c-1.2 1.8-2.8 3.1-4.7 3.8-1.9.8-4 1.1-6.3 1.1-1.6 0-3-.2-4.4-.7-1.4-.5-2.6-1.1-3.7-2-1.1-.9-1.9-1.9-2.5-3.1-.6-1.2-.9-2.5-.9-3.9 0-1.9.5-3.5 1.4-4.9.9-1.4 2.3-2.5 4.1-3.4 1.8-.9 4.1-1.6 6.7-2.2 2.7-.5 5.7-.9 9.1-1.1v-.9c.1-.8 0-1.5-.3-2.1m30.9-17.6v8.9h8.2v7.6H344v14.4c0 .9.2 1.5.6 1.8.4.3 1 .4 1.8.4h5.9v8.1H344c-2.2 0-4.1-.1-5.6-.3-1.5-.2-2.7-.6-3.7-1.3-.9-.7-1.6-1.6-2-2.9-.4-1.3-.6-3.1-.6-5.3v-15h-6.5v-7.6h6.5v-8.9H344zm23 41.1h-12v-32.3h12v32.3zm0-35h-12v-8.5h12v8.5zm16.5 12.5c-1 1.2-1.6 3.3-1.6 6.3 0 1.5.1 2.8.4 3.8.3 1 .7 1.8 1.1 2.5.5.6 1.1 1.1 1.7 1.3.7.3 1.4.4 2.1.4.8 0 1.5-.1 2.1-.4.7-.3 1.2-.7 1.7-1.3.5-.6.9-1.4 1.1-2.5.3-1 .4-2.3.4-3.8 0-3-.5-5.1-1.6-6.3-1-1.2-2.3-1.8-3.8-1.8-1.3 0-2.5.6-3.6 1.8m-3 22.3c-2.2-.7-4.1-1.8-5.7-3.2-1.6-1.4-2.9-3.2-3.8-5.3-.9-2.1-1.4-4.6-1.4-7.4 0-2.8.5-5.3 1.4-7.4.9-2.1 2.2-3.9 3.8-5.3 1.6-1.4 3.5-2.5 5.7-3.2 2.2-.7 4.4-1.1 6.8-1.1 2.4 0 4.7.4 6.8 1.1 2.1.7 4 1.8 5.6 3.2 1.6 1.4 2.9 3.2 3.9 5.3 1 2.1 1.4 4.6 1.4 7.4 0 2.8-.5 5.3-1.4 7.4-1 2.1-2.3 3.9-3.9 5.3s-3.5 2.5-5.6 3.2c-2.1.7-4.4 1.1-6.8 1.1-2.3-.1-4.6-.4-6.8-1.1m43.4-31.5c1.7-.8 3.6-1.3 5.9-1.3 2 0 3.7.3 5.1.9 1.4.6 2.5 1.4 3.3 2.6.8 1.1 1.4 2.5 1.8 4.1.4 1.6.5 3.4.5 5.3v20.2h-12v-17.8c0-.7 0-1.4-.1-2-.1-.7-.3-1.3-.5-1.8-.3-.5-.6-1-1.2-1.3-.5-.3-1.2-.5-2.1-.5-1.5 0-2.7.5-3.5 1.5-.9 1-1.3 2.7-1.3 5v16.9h-12v-32.3h12v4.2c1-1.7 2.4-2.9 4.1-3.7m33.6 18.5c-1.6.6-2.5 1.6-2.5 3 0 .7.3 1.3.9 2 .6.6 1.6 1 3 1 .8 0 1.5-.1 2.2-.3.7-.2 1.3-.5 1.9-1 .5-.5 1-1.1 1.3-1.9.3-.8.4-1.8.4-3.1v-1c-3.1.3-5.5.7-7.2 1.3m6.5-10.3c-.3-.6-.6-1-1.1-1.3-.4-.3-1-.5-1.5-.6-.6-.1-1.2-.2-1.8-.2-1.5 0-2.8.3-3.7 1-1 .7-1.5 1.7-1.7 3.1h-10.3c.1-1.5.6-3 1.3-4.4.8-1.4 1.8-2.7 3.2-3.8 1.4-1.1 3.1-2 5.1-2.7 2-.7 4.3-1 7-1 2.3 0 4.5.2 6.4.7 1.9.5 3.6 1.3 5 2.4 1.4 1.1 2.5 2.6 3.2 4.4.8 1.8 1.2 4.1 1.1 6.8l-.1 6.2v3.2c0 1.1 0 2.3.1 3.4.1 1.2.1 2.3.2 3.4s.2 2.1.3 3h-11.2v-4.2c-1.2 1.8-2.8 3.1-4.7 3.8-1.9.8-4 1.1-6.3 1.1-1.6 0-3-.2-4.4-.7-1.4-.5-2.6-1.1-3.7-2-1.1-.9-1.9-1.9-2.5-3.1-.6-1.2-.9-2.5-.9-3.9 0-1.9.5-3.5 1.4-4.9.9-1.4 2.3-2.5 4.1-3.4 1.8-.9 4.1-1.6 6.7-2.2 2.7-.5 5.7-.9 9.1-1.1v-.9c.1-.8-.1-1.5-.3-2.1m14.9-20h12v43.5h-12zM157.7 22.5v29.2H181v128.7h-23.3v29.2h52.6V22.5zM23.1 209.6h52.7v-29.2H52.4V51.7h23.4V22.5H23.1zM87.5 22.5v29.2l58.5 64.4V22.5zm0 187.1H146v-29.2l-58.5-64.3z" fill="#fff"/></svg>