<svg xmlns="http://www.w3.org/2000/svg" width="117.333" height="32" viewBox="0 0 88 24"><path d="M26.176 3.703v-2.57h9.75v2.57H32.46v7.855H29.61V3.703zm14.254.25c.395-.203.855-.3 1.387-.3.477 0 .87.066 1.203.215a1.83 1.83 0 0 1 .789.617c.19.27.348.602.43.97.082.383.13.8.13 1.266v4.855h-2.855V7.32c0-.168-.012-.316-.03-.484-.016-.148-.066-.297-.113-.434-.066-.133-.148-.23-.28-.316s-.297-.113-.496-.113c-.348 0-.625.113-.84.348s-.312.63-.312 1.2v4.04h-2.855V1.117h2.855v3.72c.262-.383.594-.684.988-.883zm6.992 7.504c-.5-.19-.957-.484-1.336-.867a3.6 3.6 0 0 1-.824-1.316c-.2-.52-.28-1.07-.28-1.684 0-.62.098-1.168.313-1.687.215-.5.512-.934.875-1.285s.81-.617 1.305-.816 1.04-.285 1.613-.285c.68 0 1.273.117 1.816.37.527.25.973.598 1.352 1.035.363.43.645.945.81 1.53.18.582.25 1.22.2 1.883h-5.527c.05.402.2.7.465.953.262.23.625.348 1.07.348a1.9 1.9 0 0 0 .793-.18c.22-.105.402-.28.512-.504h2.672c-.082.285-.23.602-.43.918-.2.336-.48.637-.81.902a4.2 4.2 0 0 1-1.187.699c-.46.184-.988.285-1.582.285-.68.016-1.285-.102-1.816-.3zm1.402-5.887c-.148.05-.297.117-.445.215a1.64 1.64 0 0 0-.363.387c-.117.148-.18.348-.23.582h2.97a1.48 1.48 0 0 0-.164-.582 1.32 1.32 0 0 0-.363-.387c-.14-.094-.297-.168-.46-.215s-.312-.066-.477-.066a1.47 1.47 0 0 0-.465.066zM32.48 16.96v6.602h-2.855V13.125h3.66l3.32 6.637v-6.637h2.852v10.438H35.78zm12.535.97a.96.96 0 0 0-.25-.32c-.098-.066-.23-.117-.363-.148s-.28-.05-.426-.05c-.363 0-.664.082-.875.25-.23.168-.363.418-.414.75h-2.44a2.86 2.86 0 0 1 .316-1.066c.176-.352.426-.648.758-.918s.723-.484 1.203-.633c.477-.168 1.023-.25 1.664-.25.547 0 1.06.05 1.52.168s.86.3 1.188.566.578.617.777 1.05c.18.434.277.984.262 1.633l-.016 1.484v.766l.016.82.05.816.063.715h-2.652v-1a2.37 2.37 0 0 1-1.105.918c-.46.184-.953.27-1.5.27a3.3 3.3 0 0 1-1.059-.168c-.328-.117-.625-.266-.875-.465a2.3 2.3 0 0 1-.59-.734 2 2 0 0 1-.219-.949 2.1 2.1 0 0 1 .332-1.168c.23-.336.543-.598.988-.816.43-.22.957-.398 1.602-.516.625-.117 1.352-.22 2.16-.27v-.215c-.016-.22-.05-.383-.113-.52zm-1.52 2.465c-.395.152-.578.387-.578.734 0 .168.066.316.215.465s.38.234.727.234c.18 0 .344-.02.527-.066.164-.05.313-.117.445-.234a1.03 1.03 0 0 0 .297-.465c.066-.195.098-.434.098-.734v-.234c-.777.055-1.352.152-1.73.3zm8.855-6.703v2.133h1.95v1.82h-1.95v3.453c0 .215.055.363.137.434s.23.098.4.098H54.3v1.953h-1.965c-.527 0-.973-.02-1.336-.066-.36-.055-.64-.152-.87-.3-.215-.152-.38-.402-.48-.703-.098-.316-.148-.73-.148-1.266v-3.602h-1.535v-1.82H49.5V13.69zm5.465 1.484H54.96v-2.05h2.855zm0 8.387H54.96v-7.738h2.855zM61 23.5c-.516-.168-.953-.418-1.355-.77a3.55 3.55 0 0 1-.906-1.27c-.23-.496-.328-1.098-.328-1.78s.113-1.285.328-1.785c.23-.5.527-.934.906-1.266a3.73 3.73 0 0 1 1.355-.77 5.25 5.25 0 0 1 1.613-.266 4.7 4.7 0 0 1 1.617.266c.512.168.953.434 1.336.77s.69.766.926 1.266c.23.516.348 1.102.348 1.785s-.117 1.285-.348 1.78c-.234.52-.527.934-.926 1.27a3.84 3.84 0 0 1-1.336.77 5.21 5.21 0 0 1-1.617.25c-.562 0-1.086-.086-1.613-.25zm.723-5.34c-.246.285-.363.785-.363 1.52 0 .367.035.668.098.918s.152.434.266.582.246.25.4.316c.152.066.332.098.516.098s.344-.03.512-.098a1.05 1.05 0 0 0 .41-.316c.117-.148.2-.352.266-.582a3.59 3.59 0 0 0 .102-.918c0-.72-.137-1.22-.367-1.52-.246-.28-.543-.434-.906-.434s-.69.148-.94.434zm9.566-2.203c.398-.2.86-.297 1.387-.297.48 0 .875.066 1.203.215s.594.352.793.62a2.65 2.65 0 0 1 .426.965c.082.383.133.8.133 1.27v4.848h-2.855v-4.266c0-.168-.016-.32-.03-.484s-.066-.3-.117-.434a.73.73 0 0 0-.281-.316c-.13-.082-.297-.117-.496-.117-.344 0-.625.117-.84.348s-.312.637-.312 1.203v4.05H67.44v-7.738h2.855v1a2.44 2.44 0 0 1 .988-.867zm9.5 1.973a.89.89 0 0 0-.246-.32c-.098-.066-.23-.117-.363-.148s-.277-.05-.43-.05c-.36 0-.656.082-.87.25-.234.168-.363.418-.414.75h-2.44a2.83 2.83 0 0 1 .313-1.066c.184-.352.43-.652.758-.918a3.65 3.65 0 0 1 1.207-.633c.48-.168 1.023-.25 1.668-.25.543 0 1.055.05 1.516.164s.855.3 1.188.57.578.613.773 1.05c.184.434.28.98.266 1.633l-.016 1.484v.766l.016.82.05.816.063.715h-2.672v-1a2.35 2.35 0 0 1-1.105.918c-.46.184-.953.266-1.5.266-.363 0-.723-.05-1.055-.168s-.625-.262-.875-.46a2.31 2.31 0 0 1-.594-.734c-.148-.28-.215-.598-.215-.95 0-.453.117-.836.332-1.168.23-.336.543-.602.988-.816.43-.22.953-.402 1.598-.52a18.83 18.83 0 0 1 2.164-.266v-.215c0-.22-.03-.387-.102-.52zm-1.53 2.465c-.395.148-.578.383-.578.734 0 .168.066.316.215.465s.38.23.727.23a1.88 1.88 0 0 0 .527-.066c.164-.047.313-.113.445-.23a1.05 1.05 0 0 0 .297-.465c.063-.2.098-.434.098-.734v-.234c-.758.05-1.336.152-1.734.3zm5.06 3.168V13.125h2.855v10.438zM17.172 1.133v3.504h2.77v15.426h-2.77v3.5h6.234V1.133zM1.22 23.563h6.238v-3.5H4.684V4.637h2.773V1.133H1.22zm0 0" fill="rgb(0%,30.588235%,47.45098%)"/><path d="M8.855 1.133v3.504l6.93 7.703V1.133zm0 22.43h6.93v-3.5l-6.93-7.723zm0 0" fill="rgb(50.196078%,65.098039%,73.72549%)"/></svg>